<?xml version="1.0" ?><!DOCTYPE svg  PUBLIC '-//W3C//DTD SVG 1.1//EN'  'http://www.w3.org/Graphics/SVG/1.1/DTD/svg11.dtd'><svg height="512px" style="enable-background:new 0 0 512 512;" version="1.1" viewBox="0 0 512 512" width="512px" xml:space="preserve" xmlns="http://www.w3.org/2000/svg" xmlns:xlink="http://www.w3.org/1999/xlink"><g id="_x32_2-viddler"><g><g><path d="M379.383,290.664c63.619,0,115.221-51.289,115.221-114.543     c0-63.216-51.602-114.512-115.221-114.512c-57.889,0-105.729,42.407-113.906,97.645h-3.721     c-8.201-55.237-56.072-97.645-113.961-97.645c-63.619,0-115.192,51.296-115.192,114.512c0,62.656,50.617,113.586,113.457,114.516     v0.027h3.46v39.028L17.397,294.1v152.314l132.122-39.51v43.486h194.194l-56.908-159.727H379.383z M147.794,208.454     c-17.981,0-32.542-14.448-32.542-32.356c0-17.86,14.578-32.336,32.542-32.336c17.952,0,32.53,14.476,32.53,32.336     C180.325,194.006,165.747,208.454,147.794,208.454 M349.207,176.121c0-17.851,14.512-32.326,32.475-32.326     c18.008,0,32.598,14.476,32.598,32.326c0,17.885-14.59,32.39-32.598,32.39C363.719,208.478,349.207,194.006,349.207,176.121" style="fill:#2299F8;"/></g></g></g><g id="Layer_1"/></svg>